<?xml version="1.0" encoding="utf-8"?>
<!-- Generator: Adobe Illustrator 27.8.1, SVG Export Plug-In . SVG Version: 6.00 Build 0)  -->
<svg version="1.1" id="Layer_1" xmlns="http://www.w3.org/2000/svg" xmlns:xlink="http://www.w3.org/1999/xlink" x="0px" y="0px"
	 viewBox="0 0 473 474" style="enable-background:new 0 0 473 474;" xml:space="preserve">
<style type="text/css">
	.st0{fill:#0B53A3;}
	.st1{fill:#FFFFFF;}
	.st2{fill:#FFF100;}
	.st3{display:none;}
	.st4{display:inline;fill:#0B53A3;}
	.st5{display:inline;fill:#FFFFFF;}
	.st6{display:inline;}
</style>
<circle class="st0" cx="234.9" cy="238.6" r="156.9"/>
<g>
	<path class="st0" d="M234.9,457.2C114,457.2,15.7,358.9,15.7,238c0-120.9,98.3-219.2,219.2-219.2S454.1,117.1,454.1,238
		S355.8,457.2,234.9,457.2z M234.9,23.6C116.7,23.6,20.5,119.8,20.5,238s96.2,214.4,214.4,214.4S449.3,356.2,449.3,238
		S353.1,23.6,234.9,23.6z"/>
</g>
<g>
	<g>
		<path class="st1" d="M192.5,194.2v15.5h25v14.4h-25V241h28.3v15h-47v-76.8h47v15L192.5,194.2L192.5,194.2z"/>
		<path class="st1" d="M251.3,179.2v45.9c0,4.6,1.1,8.1,3.4,10.6c2.3,2.5,5.6,3.7,10,3.7s7.7-1.2,10.1-3.7s3.5-6,3.5-10.6v-45.9
			h18.7V225c0,6.9-1.5,12.6-4.4,17.4c-2.9,4.7-6.8,8.3-11.8,10.7s-10.4,3.6-16.5,3.6s-11.5-1.2-16.2-3.6c-4.8-2.4-8.6-5.9-11.3-10.7
			s-4.1-10.6-4.1-17.4v-45.8H251.3L251.3,179.2z"/>
	</g>
	<g>
		<path class="st1" d="M195.6,275c-0.7-1.3-1.7-2.2-2.9-2.9s-2.6-1-4.3-1c-1.8,0-3.4,0.4-4.8,1.2c-1.4,0.8-2.5,2-3.3,3.5
			c-0.8,1.5-1.2,3.2-1.2,5.2c0,2,0.4,3.8,1.2,5.3s1.9,2.7,3.3,3.5c1.4,0.8,3.1,1.2,5,1.2c2.3,0,4.2-0.6,5.7-1.9
			c1.5-1.2,2.5-3,2.9-5.2h-10.5v-4.7h16.5v5.3c-0.4,2.1-1.3,4.1-2.6,5.9c-1.3,1.8-3.1,3.2-5.2,4.3s-4.5,1.6-7.1,1.6
			c-2.9,0-5.6-0.7-7.9-2c-2.4-1.3-4.2-3.2-5.6-5.5s-2-5-2-8s0.7-5.7,2-8s3.2-4.2,5.6-5.5s5-2,7.9-2c3.4,0,6.4,0.8,8.9,2.5
			c2.5,1.7,4.3,4,5.2,7L195.6,275L195.6,275z"/>
		<path class="st1" d="M229.1,267.7c2.4,1.2,4.3,3,5.6,5.3s2,5,2,8c0,3-0.7,5.7-2,8s-3.2,4-5.6,5.3c-2.4,1.2-5.2,1.9-8.4,1.9H210
			v-30.4h10.6C223.9,265.8,226.7,266.5,229.1,267.7z M227.9,288.5c1.7-1.7,2.6-4.2,2.6-7.4c0-3.2-0.9-5.6-2.6-7.4
			c-1.7-1.8-4.2-2.7-7.4-2.7h-4.3v20.1h4.3C223.6,291.1,226.1,290.2,227.9,288.5z"/>
		<path class="st1" d="M264.5,279.8c-0.8,1.4-2,2.6-3.6,3.4s-3.7,1.3-6.2,1.3h-5.1v11.7h-6.1v-30.4h11.2c2.4,0,4.4,0.4,6,1.2
			c1.7,0.8,2.9,1.9,3.7,3.4c0.8,1.4,1.2,3,1.2,4.8C265.6,276.9,265.3,278.4,264.5,279.8z M258.2,278.5c0.8-0.8,1.2-1.9,1.2-3.2
			c0-3-1.7-4.5-5-4.5h-4.8v8.9h4.8C256.1,279.7,257.4,279.3,258.2,278.5z"/>
		<path class="st1" d="M287.8,296.3l-6.7-11.9h-2.9v11.9h-6.1v-30.4h11.4c2.4,0,4.4,0.4,6,1.2s2.9,2,3.7,3.4c0.8,1.4,1.2,3,1.2,4.7
			c0,2-0.6,3.8-1.7,5.4c-1.2,1.6-2.9,2.7-5.2,3.3l7.3,12.3L287.8,296.3L287.8,296.3z M278.2,279.8h5.1c1.7,0,2.9-0.4,3.7-1.2
			c0.8-0.8,1.2-1.9,1.2-3.3c0-1.4-0.4-2.5-1.2-3.2s-2-1.1-3.7-1.1h-5.1V279.8z"/>
	</g>
</g>
<path class="st0" d="M80.8,148.9c0,4.1-3.3,7.5-7.5,7.5c-4.1,0-7.5-3.4-7.5-7.5c0-4.1,3.3-7.5,7.5-7.5S80.8,144.8,80.8,148.9z
	 M103,109.2c2,2.3,4.2,3.9,6.8,4.8s5.2,1.1,7.9,0.6c2.7-0.5,5.1-1.7,7.3-3.7c2.6-2.2,4.3-4.9,5.1-7.9c0.8-3,0.6-6-0.7-9.1l-5.4,4.6
	c0.4,1.6,0.4,3.1-0.1,4.4c-0.5,1.4-1.3,2.6-2.6,3.7c-1.4,1.2-2.8,1.9-4.4,2.2c-1.6,0.3-3.2,0.1-4.8-0.6c-1.6-0.7-3.1-1.8-4.4-3.3
	c-1.3-1.6-2.2-3.2-2.6-4.8s-0.3-3.3,0.2-4.8c0.5-1.5,1.4-2.9,2.8-4.1c1.3-1.1,2.6-1.8,4.1-2.1c1.4-0.3,2.9-0.1,4.4,0.6l5.4-4.6
	c-2.8-1.7-5.8-2.4-8.9-2s-6,1.6-8.6,3.9c-2.2,1.9-3.8,4.1-4.7,6.7s-1.1,5.2-0.6,7.9C99.8,104.4,101,106.9,103,109.2z M151.4,92.4
	c2.5-1.4,4.4-3.3,5.9-5.7c1.4-2.4,2.1-4.9,2.2-7.7c0-2.8-0.7-5.5-2.2-8.1c-1.5-2.6-3.4-4.6-5.8-6c-2.4-1.4-5-2.1-7.7-2
	s-5.4,0.8-7.9,2.2c-2.5,1.4-4.4,3.3-5.9,5.7s-2.1,4.9-2.2,7.7s0.7,5.5,2.2,8.1c1.5,2.6,3.4,4.6,5.9,6s5,2.1,7.8,2
	C146.3,94.6,148.9,93.8,151.4,92.4z M148.7,87.6c-1.6,0.9-3.2,1.4-4.9,1.3c-1.6,0-3.2-0.5-4.7-1.5s-2.7-2.3-3.7-4.1
	s-1.6-3.5-1.6-5.3c-0.1-1.7,0.3-3.3,1.1-4.7c0.8-1.4,2-2.6,3.6-3.5c1.6-0.9,3.2-1.4,4.9-1.4s3.2,0.5,4.6,1.4s2.7,2.3,3.7,4.1
	c1,1.8,1.6,3.6,1.7,5.3c0.1,1.7-0.3,3.3-1.1,4.8C151.5,85.5,150.3,86.7,148.7,87.6z M183.3,45.8L181,70.5l-16.3-18.8l-6.7,2.1
	l9.4,29.2l5.9-1.9l-6.1-19l14,16.5l4.4-1.4l1.7-21.5l6.1,19l5.9-1.9l-9.4-29.2L183.3,45.8z M223.5,48.7c-0.2-1.8-0.8-3.4-1.8-4.7
	c-1-1.3-2.4-2.3-4.1-2.9s-3.8-0.8-6.2-0.5L200.2,42l3.7,30.5l6.1-0.8L208.6,60l5.1-0.6c2.5-0.3,4.5-1,6.1-2.1
	c1.5-1.1,2.6-2.4,3.2-3.9C223.5,51.9,223.7,50.3,223.5,48.7z M212.8,54.5l-4.9,0.6l-1.1-8.9l4.9-0.6c3.3-0.4,5.2,0.9,5.5,3.8
	c0.2,1.4-0.1,2.5-0.8,3.4C215.7,53.8,214.5,54.3,212.8,54.5z M236.6,39.3l-6.2-0.1L230,69.9l16.3,0.2l0.1-4.9l-10.1-0.1L236.6,39.3z
	 M253.9,40.1l-3.4,30.5l6.1,0.7l3.4-30.5L253.9,40.1z M282.6,76.6l6.3,1.5l-3.5-32.5l-7-1.7l-18,27.3l6.3,1.5l3.3-5.2l11.9,2.9
	L282.6,76.6z M273,63.2l7.3-11.4l1.3,13.5L273,63.2z M328.1,61.8l-5.6-2.5l-8.6,19.3l-4.2-25l-5.6-2.5l-12.5,28.1l5.6,2.5l8.5-19.2
	l4.2,24.9l5.6,2.5L328.1,61.8z M335.5,66l-2.7,4.2l6.8,4.5l-14.2,21.5l5.1,3.4l14.2-21.5l6.8,4.5l2.7-4.2L335.5,66z M415,196.6
	c-3,0.4-5.6,1.5-7.7,3.2c-2.1,1.7-3.7,3.8-4.7,6.3s-1.2,5.2-0.8,8.1c0.5,3.4,1.8,6.3,3.9,8.6s4.8,3.7,8,4.3l-1-7
	c-1.5-0.5-2.8-1.3-3.7-2.4s-1.5-2.6-1.8-4.2c-0.3-1.8-0.1-3.4,0.5-4.9s1.6-2.8,3-3.7c1.4-1,3.1-1.6,5.1-1.9c2-0.3,3.9-0.2,5.5,0.4
	c1.6,0.6,3,1.4,4,2.7s1.7,2.8,1.9,4.5c0.2,1.6,0.1,3.2-0.4,4.5c-0.5,1.4-1.5,2.5-2.8,3.4l1,7c2.9-1.5,5.1-3.6,6.4-6.4
	s1.8-5.9,1.3-9.3c-0.4-2.9-1.5-5.4-3.1-7.6s-3.8-3.7-6.4-4.7C420.8,196.4,418,196.1,415,196.6z M403.4,246.5c-0.1,2.9,0.4,5.5,1.7,8
	s3,4.4,5.3,5.9s5,2.3,8,2.5c3,0.1,5.7-0.4,8.2-1.7s4.4-3.1,5.9-5.4c1.5-2.3,2.2-4.9,2.4-7.8c0.1-2.9-0.4-5.5-1.7-8s-3-4.4-5.3-6
	c-2.3-1.5-5-2.3-8-2.5c-3-0.1-5.8,0.4-8.2,1.7c-2.5,1.3-4.4,3.1-5.9,5.5C404.3,241,403.5,243.6,403.4,246.5z M408.9,246.7
	c0.1-1.8,0.6-3.5,1.5-4.8c0.9-1.4,2.1-2.4,3.7-3.1c1.6-0.7,3.4-1,5.5-0.9s3.8,0.6,5.3,1.4c1.5,0.9,2.6,2,3.4,3.5
	c0.8,1.5,1.1,3.1,1,4.9s-0.6,3.4-1.5,4.8c-0.9,1.4-2.1,2.4-3.7,3.1c-1.6,0.7-3.4,1-5.4,0.9s-3.8-0.6-5.4-1.4s-2.7-2-3.4-3.5
	C409.1,250.2,408.8,248.6,408.9,246.7z M425.8,298.3l-19.7-15.1l24.5-3.8l1.7-6.8l-29.7-7.7l-1.5,6l19.3,5l-21.4,3l-1.2,4.5l17.3,13
	l-19.3-5l-1.5,6L424,305L425.8,298.3z M401.8,330.8c1.6,0.8,3.3,1.1,5,0.9s3.2-0.8,4.7-2c1.5-1.2,2.7-2.8,3.7-5l4.8-10.2l-27.8-13.1
	l-2.6,5.6l10.7,5l-2.2,4.7c-1.1,2.3-1.6,4.4-1.5,6.2c0.1,1.9,0.6,3.5,1.6,4.8C399.1,329.1,400.3,330.1,401.8,330.8z M402.6,318.6
	l2.1-4.4l8.1,3.8l-2.1,4.4c-1.4,3-3.5,3.9-6.2,2.6c-1.3-0.6-2.1-1.4-2.4-2.5C401.7,321.5,401.9,320.2,402.6,318.6z M402.8,346.9
	l3.4-5.2L380.4,325l-8.9,13.6l4.1,2.7l5.5-8.5L402.8,346.9z M392.9,361l-24-19.2l-3.8,4.8l24,19.2L392.9,361z M346.6,365.9l-4.7,4.5
	l29.3,14.4l5.2-5L363,350.1l-4.6,4.5l2.6,5.6l-8.8,8.5L346.6,365.9z M363.1,364.9l5.7,12.3l-12.1-6.1L363.1,364.9z M334.9,412.2
	l5.1-3.4l-11.7-17.5l23.3,9.8l5.1-3.4l-17.1-25.6l-5.1,3.4l11.7,17.5l-23.3-9.8l-5.1,3.4L334.9,412.2z M327.3,416.2l-2-4.5l-7.5,3.4
	l-10.6-23.4l-5.6,2.5l10.6,23.5l-7.5,3.4l2,4.5L327.3,416.2z M174.5,413.7c1.2-2.8,1.7-5.5,1.4-8.2s-1.2-5.2-2.9-7.4
	c-1.6-2.2-3.8-3.9-6.5-5c-3.2-1.4-6.3-1.8-9.3-1.2s-5.7,2.1-7.9,4.5l6.5,2.9c1.2-1.1,2.6-1.7,4.1-1.8c1.5-0.2,3,0.1,4.5,0.8
	c1.6,0.7,2.9,1.7,3.9,3.1c0.9,1.3,1.4,2.9,1.5,4.6s-0.3,3.5-1.1,5.4c-0.8,1.9-1.9,3.4-3.2,4.4c-1.3,1.1-2.8,1.7-4.4,1.9
	c-1.6,0.2-3.2,0-4.9-0.8c-1.5-0.7-2.7-1.6-3.6-2.8c-0.9-1.2-1.3-2.6-1.4-4.2l-6.5-2.9c-0.3,3.3,0.4,6.2,2,8.9s4.1,4.7,7.2,6
	c2.7,1.2,5.4,1.6,8.1,1.4c2.7-0.3,5.1-1.2,7.4-2.9C171.6,418.7,173.3,416.5,174.5,413.7z M138.5,377.2c-2.4-1.6-4.9-2.6-7.6-2.9
	c-2.7-0.3-5.4,0.2-7.9,1.3c-2.5,1.2-4.6,3-6.3,5.5c-1.7,2.5-2.7,5.1-2.9,7.8s0.3,5.4,1.4,7.8s3,4.5,5.4,6.2c2.4,1.6,4.9,2.6,7.7,2.9
	s5.4-0.2,7.9-1.3c2.5-1.2,4.6-3,6.4-5.4c1.7-2.5,2.7-5.1,2.9-7.9s-0.3-5.4-1.5-7.9S140.9,378.9,138.5,377.2z M135.4,381.8
	c1.5,1.1,2.6,2.3,3.3,3.8c0.7,1.5,0.9,3.1,0.7,4.8c-0.2,1.7-0.9,3.4-2.1,5.1s-2.5,2.9-4.1,3.7s-3.1,1.1-4.8,1
	c-1.6-0.1-3.2-0.7-4.7-1.8c-1.5-1-2.6-2.3-3.3-3.8c-0.7-1.5-0.9-3.1-0.7-4.8c0.2-1.7,0.9-3.4,2.1-5.1c1.2-1.7,2.5-2.9,4.1-3.8
	s3.1-1.2,4.7-1.1C132.3,380.1,133.8,380.7,135.4,381.8z M82.8,368.4l23.3-8.5l-10,22.7l4.8,5.1l22.4-21l-4.2-4.5L104.5,376l8.9-19.7
	l-3.2-3.4L90,360.5l14.6-13.7l-4.2-4.5l-22.4,21L82.8,368.4z M68.1,330.9c-1.5,1-2.7,2.2-3.4,3.7c-0.8,1.5-1,3.1-0.8,5
	c0.2,1.9,0.9,3.8,2.2,5.8l6.1,9.5L98,338.3l-3.3-5.2l-9.9,6.3l-2.8-4.3c-1.4-2.1-2.8-3.6-4.5-4.6c-1.6-0.9-3.3-1.3-4.9-1.2
	C71,329.5,69.5,330,68.1,330.9z M78,338l2.6,4.1l-7.5,4.8l-2.6-4.1c-1.8-2.8-1.4-5,1.1-6.6c1.2-0.8,2.3-1,3.4-0.7
	C76,335.8,77,336.6,78,338z M53.9,323.2l2.6,5.6l27.9-12.9l-6.8-14.8l-4.4,2l4.2,9.2L53.9,323.2z M47.3,307.2l29-10.1l-2-5.8
	l-29,10.1L47.3,307.2z M67.9,265.5l-1.3-6.4l-27.8,17.1l1.5,7l32.4,4.5l-1.3-6.3l-6.1-0.8l-2.5-12L67.9,265.5z M59.9,280l-13.5-1.7
	l11.7-7L59.9,280z M35,230.8l0.2,6.2l21.1-0.5l-20.8,14.4l0.2,6.2l30.7-0.7l-0.2-6.2l-21.1,0.5l20.7-14.4l-0.2-6.2L35,230.8z
	 M35.7,222.3l4.9,0.7l1.1-8.1l25.5,3.6l0.9-6.1l-25.5-3.6l1.1-8.1l-4.9-0.7L35.7,222.3z M391.7,136.6c-4.1,0-7.5,3.4-7.5,7.5
	s3.4,7.5,7.5,7.5s7.5-3.4,7.5-7.5S395.9,136.6,391.7,136.6z M241.4,416.8c-4.1,0-7.5,3.4-7.5,7.5c0,4.1,3.4,7.5,7.5,7.5
	c4.1,0,7.5-3.4,7.5-7.5S245.5,416.8,241.4,416.8z"/>
<path class="st2" d="M181.7,133.1h14.8l-12,8.3l4.6,13.4l-12-8.3l-12,8.3l4.6-13.4l-12-8.3h14.8l4.6-13.4L181.7,133.1z M234.8,104.5
	l-4.6,13.4h-14.8l12,8.3l-4.6,13.4l12-8.3l12,8.3l-4.6-13.4l12-8.3h-14.8L234.8,104.5z M292.7,119.5l-4.6,13.4h-14.8l12,8.3
	l-4.6,13.4l12-8.3l12,8.3l-4.6-13.4l12-8.3h-14.8L292.7,119.5z M335.1,161.9l-4.6,13.4h-14.8l12,8.3l-4.6,13.4l12-8.3l12,8.3
	l-4.6-13.4l12-8.3h-14.8L335.1,161.9z M350.2,219.6l-4.6,13.4h-14.8l12,8.3l-4.6,13.4l12-8.3l12,8.3l-4.6-13.4l12-8.3h-14.8
	L350.2,219.6z M334.8,277.4l-4.6,13.4h-14.8l12,8.3l-4.6,13.4l12-8.3l12,8.3l-4.6-13.4l12-8.3h-14.8L334.8,277.4z M292.7,319.9
	l-4.6,13.4h-14.8l12,8.3l-4.6,13.4l12-8.3l12,8.3l-4.6-13.4l12-8.3h-14.8L292.7,319.9z M235.1,335.1l-4.6,13.4h-14.8l12,8.3
	l-4.6,13.4l12-8.3l12,8.3l-4.6-13.4l12-8.3h-14.8L235.1,335.1z M177.3,319.5l-4.6,13.4h-14.8l12,8.3l-4.6,13.4l12-8.3l12,8.3
	l-4.6-13.4l12-8.3h-14.8L177.3,319.5z M135.1,277.2l-4.6,13.4h-14.8l12,8.3l-4.6,13.4l12-8.3l12,8.3l-4.6-13.4l12-8.3h-14.8
	L135.1,277.2z M119.6,219.3l-4.6,13.4h-14.8l12,8.3l-4.6,13.4l12-8.3l12,8.3l-4.6-13.4l12-8.3h-14.8L119.6,219.3z M135,161.9
	l-4.6,13.4h-14.8l12,8.3L123,197l12-8.3l12,8.3l-4.6-13.4l12-8.3h-14.8L135,161.9z"/>
<g class="st3">
	<polygon class="st4" points="-275.2,19.1 -288,27.2 -300.8,19.1 -312.5,28.6 -326.1,22.1 -336.6,32.8 -350.9,27.9 -360.1,39.8 
		-374.9,36.7 -382.6,49.6 -397.6,48.1 -403.9,61.8 -418.9,62.1 -423.5,76.5 -438.5,78.5 -441.3,93.3 -456,97.1 -457.1,112.1 
		-471.2,117.5 -470.6,132.6 -484,139.6 -481.6,154.5 -494.1,163 -490,177.5 -501.4,187.4 -495.6,201.4 -505.8,212.6 -498.5,225.7 
		-507.2,238 -498.5,250.3 -505.8,263.5 -495.6,274.6 -501.4,288.6 -490,298.5 -494.1,313 -481.6,321.5 -484,336.4 -470.6,343.4 
		-471.2,358.5 -457.1,363.9 -456,378.9 -441.3,382.7 -438.5,397.5 -423.5,399.5 -418.9,413.9 -403.9,414.2 -397.6,427.9 
		-382.6,426.4 -374.9,439.4 -360.1,436.2 -350.9,448.1 -336.6,443.2 -326.1,453.9 -312.5,447.4 -300.7,456.9 -288,448.8 
		-275.2,456.9 -263.5,447.4 -249.9,453.9 -239.4,443.2 -225.1,448.1 -215.9,436.2 -201.1,439.4 -193.4,426.4 -178.4,427.9 
		-172.1,414.2 -157.1,413.9 -152.5,399.5 -137.6,397.5 -134.7,382.7 -120.1,378.9 -118.9,363.9 -104.8,358.5 -105.4,343.4 
		-92,336.4 -94.4,321.5 -81.9,313 -86,298.5 -74.6,288.6 -80.3,274.6 -70.2,263.5 -77.5,250.3 -68.8,238 -77.5,225.7 -70.2,212.6 
		-80.3,201.4 -74.6,187.4 -86,177.5 -81.9,163 -94.4,154.5 -92,139.6 -105.4,132.6 -104.8,117.5 -118.9,112.1 -120.1,97.1 
		-134.6,93.3 -137.6,78.5 -152.5,76.5 -157.1,62.1 -172.1,61.8 -178.4,48.1 -193.4,49.6 -201.1,36.7 -215.9,39.8 -225.1,27.9 
		-239.4,32.8 -249.9,22.1 -263.5,28.6 	"/>
	<circle class="st5" cx="-288" cy="238.7" r="200.1"/>
	<circle class="st4" cx="-288" cy="238.7" r="139.3"/>
	<g class="st6">
		<path class="st0" d="M-409.3,102.8c-0.4-2.4-0.1-4.7,0.8-6.9s2.4-4.1,4.4-5.7c2.4-1.9,4.9-2.9,7.7-3.1c2.7-0.2,5.3,0.5,7.7,2.1
			l-4.9,3.8c-1.3-0.6-2.6-0.8-3.8-0.7c-1.3,0.2-2.5,0.7-3.6,1.6c-1.2,1-2.1,2.1-2.6,3.5c-0.5,1.3-0.6,2.7-0.3,4.2
			c0.3,1.5,1,2.9,2.1,4.3c1.1,1.4,2.3,2.4,3.7,3.1c1.4,0.6,2.8,0.9,4.2,0.7s2.7-0.8,4-1.7c1.1-0.9,2-2,2.4-3.2s0.6-2.5,0.2-3.9
			l4.9-3.8c1,2.7,1.1,5.4,0.2,8c-0.8,2.6-2.4,4.8-4.8,6.7c-2,1.6-4.2,2.6-6.6,2.9c-2.4,0.4-4.6,0.1-6.9-0.8
			c-2.2-0.9-4.2-2.4-5.8-4.5C-407.9,107.4-408.9,105.2-409.3,102.8z"/>
		<path class="st0" d="M-370.7,74.6l3,6.1l8.1-4l1.9,3.8l-8.1,4l3.1,6.4l9.2-4.5l1.9,3.9l-14,6.9L-377.5,73l14-6.9l1.9,3.9
			L-370.7,74.6z"/>
		<path class="st0" d="M-325.3,81.8l-8.5-8.6l-2.5,0.7l2.7,10.2l-5.2,1.4l-7-26l9.8-2.6c2-0.5,3.8-0.7,5.4-0.3c1.6,0.3,2.9,1,4,2
			s1.8,2.3,2.1,3.8c0.5,1.7,0.4,3.4-0.2,5s-1.9,3-3.7,4.1l9.1,8.9L-325.3,81.8z M-337.3,69.9l4.4-1.2c1.4-0.4,2.4-1,2.9-1.9
			c0.5-0.9,0.6-1.9,0.3-3.1c-0.3-1.2-0.9-2-1.8-2.5s-2-0.5-3.4-0.1l-4.4,1.2L-337.3,69.9z"/>
		<path class="st0" d="M-289.4,50.2l0.3,4.4l-7.2,0.4l1.4,22.6l-5.4,0.3l-1.4-22.6l-7.2,0.4l-0.3-4.4L-289.4,50.2z"/>
		<path class="st0" d="M-266.8,51.6l-2.7,26.8l-5.4-0.5l2.7-26.8L-266.8,51.6z"/>
		<path class="st0" d="M-232.4,58.7l-1.1,4.2l-10.9-2.8l-1.7,6.7l8.3,2.2l-1.1,4.2l-8.3-2.2l-2.9,11l-5.2-1.3l6.8-26.1L-232.4,58.7z
			"/>
		<path class="st0" d="M-211.5,66.8l-10.6,24.8l-5-2.1l10.6-24.8L-211.5,66.8z"/>
		<path class="st0" d="M-192.6,81.6l-3.6,5.7l7.7,4.8l-2.3,3.6l-7.7-4.8l-3.8,6.1l8.7,5.4l-2.3,3.7l-13.3-8.3l14.3-22.9l13.3,8.3
			L-184,87L-192.6,81.6z"/>
		<path class="st0" d="M-155.3,107.7c0.8,2.3,0.9,4.6,0.3,6.9c-0.6,2.3-1.8,4.4-3.7,6.4s-3.9,3.3-6.2,3.9s-4.5,0.6-6.9-0.1
			s-4.5-2-6.6-4l-6.8-6.5l18.6-19.5l6.8,6.5C-157.5,103.3-156.1,105.4-155.3,107.7z M-168.8,120.2c2.2-0.1,4.2-1.1,6.2-3.1
			s2.9-4.2,2.9-6.4s-1.1-4.3-3.1-6.3l-2.8-2.6l-12.3,12.9l2.8,2.6C-173.1,119.3-171,120.3-168.8,120.2z"/>
	</g>
	<g class="st6">
		<path class="st0" d="M-404.3,351c2.5-0.6,4.9-0.5,7.3,0.3c2.4,0.8,4.6,2.2,6.5,4.2c2.2,2.4,3.6,5,4.1,7.9c0.5,2.9,0.1,5.6-1.3,8.3
			l-4.6-4.9c0.5-1.4,0.6-2.8,0.2-4.1c-0.4-1.3-1.1-2.6-2.1-3.7c-1.2-1.2-2.5-2.1-3.9-2.5s-3-0.4-4.5,0c-1.5,0.4-3,1.3-4.3,2.6
			c-1.3,1.3-2.3,2.7-2.8,4.2s-0.6,3-0.2,4.5c0.4,1.5,1.1,2.8,2.3,4.1c1.1,1.1,2.3,1.9,3.6,2.3c1.3,0.4,2.7,0.4,4.1,0l4.6,4.9
			c-2.8,1.3-5.5,1.6-8.4,0.9s-5.4-2.2-7.6-4.6c-1.9-2-3.2-4.2-3.9-6.7c-0.7-2.5-0.6-4.9,0-7.3s2-4.6,4-6.5
			C-409,352.8-406.8,351.6-404.3,351z"/>
		<path class="st0" d="M-379.1,399.5c-1.4-2.2-2.1-4.6-2.2-7.1c-0.1-2.6,0.6-5,1.9-7.4c1.4-2.4,3.1-4.2,5.4-5.4
			c2.2-1.2,4.7-1.8,7.2-1.8c2.6,0.1,5.1,0.8,7.4,2.1c2.4,1.4,4.3,3.1,5.6,5.3c1.4,2.2,2.1,4.6,2.1,7.1c0.1,2.5-0.6,5-1.9,7.4
			c-1.4,2.4-3.2,4.2-5.4,5.5c-2.2,1.2-4.6,1.8-7.2,1.8s-5.1-0.8-7.4-2.1C-375.8,403.5-377.7,401.7-379.1,399.5z M-366.4,401.8
			c1.5,0,3-0.4,4.3-1.3c1.4-0.9,2.5-2.1,3.4-3.7c0.9-1.6,1.4-3.2,1.5-4.8s-0.3-3-1.1-4.4c-0.8-1.3-1.9-2.4-3.5-3.3s-3-1.3-4.6-1.3
			s-3,0.4-4.3,1.2s-2.5,2.1-3.4,3.7s-1.4,3.2-1.5,4.9c0,1.6,0.3,3.1,1.1,4.4c0.8,1.3,2,2.4,3.5,3.3
			C-369.5,401.4-367.9,401.8-366.4,401.8z"/>
		<path class="st0" d="M-304.3,399.1l-6.1,27.4l-5.7-1.3l4-17.8l-11.6,16.1l-4.3-1l-3.6-19.5l-4,17.8l-5.7-1.3l6.1-27.4l6.5,1.5
			l4.5,22.4l13.6-18.3L-304.3,399.1z"/>
		<path class="st0" d="M-269.8,411.4c-0.7,1.4-1.8,2.5-3.3,3.3c-1.5,0.9-3.5,1.4-5.9,1.5l-4.9,0.2l0.5,10.8l-5.8,0.3l-1.3-28
			l10.7-0.5c2.2-0.1,4.2,0.2,5.8,0.9s2.9,1.6,3.7,2.9c0.9,1.3,1.3,2.7,1.4,4.4C-268.9,408.6-269.1,410-269.8,411.4z M-275.9,410.4
			c0.7-0.8,1.1-1.8,1-3c-0.1-2.7-1.8-4-4.9-3.9l-4.6,0.2l0.4,8.1l4.6-0.2C-277.9,411.6-276.7,411.2-275.9,410.4z"/>
		<path class="st0" d="M-233.5,413.2l-11.1,3.3l-0.3,5.7l-5.9,1.7l2.1-29.9l6.5-1.9l18,24l-5.9,1.7L-233.5,413.2z M-236.3,409.3
			l-7.4-10.1l-0.7,12.5L-236.3,409.3z"/>
		<path class="st0" d="M-185.4,395.5l-5,3l-21.2-9.8l9.9,16.5l-5,3l-14.4-24.1l5-3l21.2,9.8l-9.9-16.6l5-3L-185.4,395.5z"/>
		<path class="st0" d="M-172.5,346.3l5.9,19.9l6.9,6.9l-4.1,4.1l-6.9-6.9l-19.9-6l4.7-4.6l13.5,4.7l-4.7-13.5L-172.5,346.3z"/>
	</g>
	<polygon class="st4" points="-114.2,223.6 -118,234.6 -130.1,234.6 -120.3,241.4 -124.1,252.4 -114.2,245.6 -104.4,252.4 
		-108.2,241.4 -98.3,234.6 -110.5,234.6 	"/>
	<polygon class="st4" points="-461.1,223.6 -464.8,234.6 -477,234.6 -467.1,241.4 -470.9,252.4 -461.1,245.6 -451.2,252.4 
		-455,241.4 -445.2,234.6 -457.3,234.6 	"/>
	<g class="st6">
		<path class="st1" d="M-355.6,246.6v2.2h-41.1v-2.2h2.6c2.3,0,4.1-0.4,5.5-1.3c1-0.6,1.8-1.5,2.3-2.9c0.4-1,0.6-3.5,0.6-7.7v-54.3
			c0-4.2-0.2-6.9-0.6-7.9s-1.3-2-2.6-2.8c-1.3-0.8-3-1.2-5.2-1.2h-2.6v-2.2h41.1v2.2h-2.6c-2.3,0-4.1,0.4-5.5,1.3
			c-1,0.6-1.8,1.5-2.4,2.9c-0.4,1-0.6,3.5-0.6,7.7v54.3c0,4.2,0.2,6.9,0.7,7.9c0.4,1.1,1.3,2,2.6,2.8c1.3,0.8,3,1.2,5.2,1.2H-355.6z
			"/>
		<path class="st1" d="M-291.3,164.4l0.6,27.5h-2.4c-1.1-6.9-3.9-12.5-8.2-16.7s-9.1-6.3-14.2-6.3c-3.9,0-7.1,1.1-9.4,3.3
			c-2.3,2.2-3.5,4.8-3.5,7.6c0,1.8,0.4,3.4,1.2,4.9c1.1,1.9,2.9,3.8,5.4,5.7c1.8,1.3,6,3.7,12.6,7.1c9.2,4.8,15.4,9.2,18.6,13.5
			c3.2,4.2,4.8,9.1,4.8,14.5c0,6.9-2.6,12.9-7.7,17.8c-5.1,5-11.6,7.5-19.5,7.5c-2.5,0-4.8-0.3-7-0.8s-5-1.5-8.3-3
			c-1.9-0.8-3.4-1.2-4.6-1.2c-1,0-2.1,0.4-3.2,1.2c-1.1,0.8-2,2.1-2.7,3.7h-2.1v-31.2h2.1c1.7,8.8,5,15.5,9.8,20.1
			s10.1,6.9,15.7,6.9c4.3,0,7.8-1.2,10.3-3.7s3.9-5.4,3.9-8.6c0-1.9-0.5-3.8-1.5-5.7c-1-1.8-2.5-3.6-4.5-5.2
			c-2-1.6-5.6-3.8-10.6-6.4c-7.1-3.7-12.3-6.8-15.4-9.4c-3.1-2.6-5.5-5.5-7.2-8.7s-2.5-6.7-2.5-10.6c0-6.6,2.3-12.2,6.9-16.8
			c4.6-4.6,10.4-6.9,17.4-6.9c2.5,0,5,0.3,7.4,1c1.8,0.5,4,1.4,6.6,2.7s4.4,2,5.5,2c1,0,1.8-0.3,2.4-1c0.6-0.6,1.1-2.2,1.6-4.7
			L-291.3,164.4L-291.3,164.4L-291.3,164.4z"/>
		<path class="st1" d="M-229.3,165.1c12.5-0.5,22.7,3.4,30.5,11.5c7.8,8.2,11.7,18.4,11.7,30.6c0,10.5-2.9,19.7-8.7,27.7
			c-7.7,10.6-18.6,15.8-32.7,15.8c-14.1,0-25.1-5-32.8-15.1c-6.1-8-9.1-17.4-9.1-28.3c0-12.3,4-22.5,11.9-30.7
			C-250.6,168.5-240.9,164.6-229.3,165.1z M-228.6,169c-7.2,0-12.6,3.9-16.4,11.6c-3.1,6.3-4.6,15.4-4.6,27.3
			c0,14.1,2.4,24.5,7.1,31.2c3.3,4.7,7.9,7.1,13.8,7.1c4,0,7.3-1,10-3.1c3.4-2.6,6-6.8,7.9-12.5s2.8-13.1,2.8-22.3
			c0-10.9-1-19.1-2.9-24.5s-4.4-9.2-7.4-11.5C-221.3,170.1-224.7,169-228.6,169z"/>
	</g>
	<g class="st6">
		<path class="st1" d="M-393.7,291.4c2.4-1.9,4.2-3.5,5.6-4.8c1.4-1.2,2.5-2.5,3.4-3.9c0.9-1.4,1.4-2.7,1.4-4c0-1-0.2-1.8-0.7-2.3
			c-0.5-0.5-1.1-0.8-2-0.8c-0.9,0-1.6,0.3-2.1,1c-0.5,0.7-0.8,1.6-0.8,2.9h-5.9c0-2,0.5-3.7,1.3-5.1c0.8-1.4,1.9-2.4,3.3-3
			c1.4-0.6,2.9-1,4.5-1c2.9,0,5,0.7,6.5,2.2c1.5,1.5,2.2,3.4,2.2,5.7c0,2.6-0.9,5-2.6,7.1c-1.8,2.2-4,4.3-6.7,6.4h9.7v5h-18.1v-4.6
			C-394,291.6-393.6,291.3-393.7,291.4z"/>
		<path class="st1" d="M-369.8,274c1.6-2.4,4.2-3.6,7.7-3.6s6.1,1.2,7.7,3.6c1.6,2.4,2.4,5.6,2.4,9.8c0,4.2-0.8,7.5-2.4,9.8
			c-1.6,2.4-4.2,3.6-7.7,3.6s-6.1-1.2-7.7-3.6s-2.4-5.6-2.4-9.8C-372.2,279.6-371.4,276.3-369.8,274z M-358.8,278.1
			c-0.5-1.3-1.6-2-3.3-2c-1.7,0-2.8,0.6-3.3,2c-0.5,1.3-0.8,3.2-0.8,5.6c0,1.6,0.1,3,0.3,4c0.2,1.1,0.6,1.9,1.2,2.6s1.5,1,2.6,1
			s2-0.3,2.6-1s1-1.5,1.2-2.6s0.3-2.4,0.3-4C-358,281.3-358.3,279.4-358.8,278.1z"/>
		<path class="st1" d="M-346,291.4c2.4-1.9,4.2-3.5,5.6-4.8c1.4-1.2,2.5-2.5,3.4-3.9c0.9-1.4,1.4-2.7,1.4-4c0-1-0.2-1.8-0.7-2.3
			c-0.5-0.5-1.1-0.8-2-0.8s-1.6,0.3-2.1,1c-0.5,0.7-0.8,1.6-0.8,2.9h-5.9c0-2,0.5-3.7,1.3-5.1c0.8-1.4,1.9-2.4,3.3-3
			c1.4-0.6,2.9-1,4.5-1c2.9,0,5,0.7,6.5,2.2c1.5,1.5,2.2,3.4,2.2,5.7c0,2.6-0.9,5-2.6,7.1c-1.8,2.2-4,4.3-6.7,6.4h9.7v5h-18.1v-4.6
			C-346.4,291.6-346,291.3-346,291.4z"/>
		<path class="st1" d="M-306.1,276.3h-11.2v5c0.5-0.5,1.1-1,2-1.3s1.8-0.5,2.8-0.5c1.8,0,3.3,0.4,4.5,1.2c1.2,0.8,2.1,1.9,2.6,3.2
			c0.5,1.3,0.8,2.7,0.8,4.2c0,2.8-0.8,5-2.4,6.7s-3.8,2.5-6.7,2.5c-1.9,0-3.6-0.3-5-1c-1.4-0.7-2.5-1.6-3.3-2.8
			c-0.8-1.2-1.2-2.5-1.3-4.1h6c0.1,0.7,0.5,1.4,1,1.9c0.5,0.5,1.3,0.7,2.3,0.7c1.1,0,2-0.4,2.5-1.1s0.8-1.7,0.8-2.9
			c0-1.2-0.3-2.1-0.9-2.7c-0.6-0.6-1.4-0.9-2.5-0.9c-0.8,0-1.5,0.2-2,0.6c-0.5,0.4-0.9,0.9-1,1.6h-5.9v-15.6h16.8L-306.1,276.3
			L-306.1,276.3L-306.1,276.3z"/>
		<path class="st1" d="M-298.5,291.4c2.4-1.9,4.2-3.5,5.6-4.8c1.4-1.2,2.5-2.5,3.4-3.9c0.9-1.4,1.4-2.7,1.4-4c0-1-0.2-1.8-0.7-2.3
			c-0.5-0.5-1.1-0.8-2-0.8s-1.6,0.3-2.1,1c-0.5,0.7-0.8,1.6-0.8,2.9h-5.9c0-2,0.5-3.7,1.3-5.1c0.8-1.4,1.9-2.4,3.3-3
			c1.4-0.6,2.9-1,4.5-1c2.9,0,5,0.7,6.5,2.2s2.2,3.4,2.2,5.7c0,2.6-0.9,5-2.6,7.1c-1.8,2.2-4,4.3-6.7,6.4h9.7v5h-18.1v-4.6
			C-298.8,291.6-298.5,291.3-298.5,291.4z"/>
		<path class="st1" d="M-276.2,281.9c-0.7-0.6-1-1.4-1-2.4c0-1,0.3-1.8,1-2.4c0.7-0.6,1.6-1,2.6-1c1.1,0,1.9,0.3,2.6,1
			c0.7,0.6,1,1.5,1,2.4c0,0.9-0.3,1.7-1,2.4c-0.7,0.6-1.5,1-2.6,1C-274.7,282.8-275.5,282.5-276.2,281.9z M-276.2,296.5
			c-0.7-0.6-1-1.4-1-2.4c0-1,0.3-1.8,1-2.4c0.7-0.6,1.6-1,2.6-1c1.1,0,1.9,0.3,2.6,1c0.7,0.6,1,1.5,1,2.4c0,0.9-0.3,1.7-1,2.4
			c-0.7,0.6-1.5,1-2.6,1C-274.7,297.5-275.5,297.2-276.2,296.5z"/>
		<path class="st1" d="M-264.2,291.4c2.4-1.9,4.2-3.5,5.6-4.8c1.4-1.2,2.5-2.5,3.4-3.9c0.9-1.4,1.4-2.7,1.4-4c0-1-0.2-1.8-0.7-2.3
			c-0.5-0.5-1.1-0.8-2-0.8c-0.9,0-1.6,0.3-2.1,1c-0.5,0.7-0.8,1.6-0.8,2.9h-5.9c0-2,0.5-3.7,1.3-5.1c0.8-1.4,1.9-2.4,3.3-3
			c1.4-0.6,2.9-1,4.5-1c2.9,0,5,0.7,6.5,2.2c1.4,1.5,2.2,3.4,2.2,5.7c0,2.6-0.9,5-2.6,7.1c-1.8,2.2-4,4.3-6.7,6.4h9.7v5h-18.1v-4.6
			C-264.5,291.6-264.1,291.3-264.2,291.4z"/>
		<path class="st1" d="M-240.3,274c1.6-2.4,4.2-3.6,7.7-3.6s6.1,1.2,7.7,3.6c1.6,2.4,2.4,5.6,2.4,9.8c0,4.2-0.8,7.5-2.4,9.8
			c-1.6,2.4-4.2,3.6-7.7,3.6s-6.1-1.2-7.7-3.6s-2.4-5.6-2.4-9.8C-242.7,279.6-241.9,276.3-240.3,274z M-229.3,278.1
			c-0.5-1.3-1.6-2-3.3-2c-1.7,0-2.8,0.6-3.3,2c-0.5,1.3-0.8,3.2-0.8,5.6c0,1.6,0.1,3,0.3,4c0.2,1.1,0.6,1.9,1.2,2.6s1.5,1,2.6,1
			s2-0.3,2.6-1s1-1.5,1.2-2.6s0.3-2.4,0.3-4C-228.5,281.3-228.8,279.4-229.3,278.1z"/>
		<path class="st1" d="M-218.1,276.6v-5.7h10v26.3h-6.4v-20.5L-218.1,276.6L-218.1,276.6z"/>
		<path class="st1" d="M-192.2,292.3c1.3,0,2.2-0.6,2.7-1.7s0.8-3,0.8-5.5c-0.5,0.7-1.2,1.3-2.2,1.7s-1.9,0.6-3.1,0.6
			c-1.5,0-2.9-0.3-4.1-1c-1.2-0.6-2.1-1.6-2.8-2.8s-1-2.8-1-4.6c0-1.8,0.4-3.3,1.1-4.6s1.8-2.3,3.1-3.1c1.4-0.7,3-1.1,4.8-1.1
			c3.6,0,6,1.1,7.4,3.3c1.4,2.2,2.1,5.5,2.1,9.8c0,3.1-0.3,5.7-0.9,7.7c-0.6,2-1.5,3.6-2.8,4.6c-1.3,1.1-3.1,1.6-5.4,1.6
			c-1.8,0-3.4-0.4-4.7-1.1s-2.3-1.7-2.9-2.8c-0.7-1.2-1.1-2.5-1.2-3.9h5.7C-195.1,291.4-194.1,292.3-192.2,292.3z M-190.1,281.7
			c0.6-0.6,0.9-1.4,0.9-2.5c0-1.1-0.3-2-0.9-2.7c-0.6-0.6-1.5-0.9-2.5-0.9s-1.9,0.3-2.5,1c-0.6,0.6-0.9,1.5-0.9,2.6
			c0,1,0.3,1.9,0.9,2.5s1.5,1,2.6,1C-191.5,282.6-190.7,282.3-190.1,281.7z"/>
	</g>
	<g class="st6">
		<path class="st0" d="M-288,386.7c-81.6,0-147.9-66.4-147.9-147.9S-369.6,90.8-288,90.8s147.9,66.4,147.9,147.9
			S-206.4,386.7-288,386.7z M-288,93.6c-80,0-145.1,65.1-145.1,145.1c0,80,65.1,145.1,145.1,145.1s145.1-65.1,145.1-145.1
			C-142.9,158.7-208,93.6-288,93.6z"/>
	</g>
</g>
</svg>
