<?xml version="1.0" encoding="utf-8"?>
<!-- Generator: Adobe Illustrator 27.9.1, SVG Export Plug-In . SVG Version: 6.00 Build 0)  -->
<svg version="1.1" id="Layer_1" xmlns="http://www.w3.org/2000/svg" xmlns:xlink="http://www.w3.org/1999/xlink" x="0px" y="0px"
	 viewBox="0 0 6000 2590.2" style="enable-background:new 0 0 6000 2590.2;" xml:space="preserve">
<style type="text/css">
	.st0{fill:none;stroke:#FFFFFF;stroke-width:8.5766;stroke-miterlimit:10;}
</style>
<path class="st0" d="M667.8,2186.2c0,0,512.4-289.2,843.5-223.2c516.6,103,670.1,329.2,778.6,351.2c108.5,22,205.3-41.1,204.5-52.1
	c-0.7-11-24.2-50-9.3-74.8c14.8-24.7,55-58.3,73.7-49.2c18.7,9.1,100.1,78.9,154,105.3c53.9,26.4,79.2,31.9,79.2,62.7
	s-57.2,51.1-127,48.9c-69.8-2.2-157.6-91.1-160.6-112.4c-2.9-21.3,3.3-96.8,46.9-81c43.6,15.8,315.4,231.3,369.3,231.8
	c53.9,0.5,67.1-116,78.6-117.7c11.5-1.6,33.5,6,73.7-3.8c40.1-9.9,167.7-41.8,183.1-26.4s31.3,61.6,6,101.2
	c-25.3,39.6-125.9,100.3-175.1,92.9c-49.2-7.4-135.5-31.6-127-39.3s66.8-83.9,55.8-108s-585.8-474.5-671.5-482.6
	c-85.8-8.1-205.3,123.9-186.9,279.3c18.3,155.4,140,206.7,183.3,207.5c43.3,0.7,141.5-38.1,121.7-43.3s-83.6,34.5-164.2-8.1
	c-80.6-42.5-123.9-119.5-116.6-181.8c7.3-62.3-2.6-342.7,5.1-350.4s144.1-28.6,145.9-22c1.8,6.6-18.3,22.7,5.9,50.6
	c24.2,27.9,258.8,166.4,272,168.6c13.2,2.2,95.3-46.9,103.7-32.3c8.4,14.7-16.1,83.9-21.3,87.6c-5.1,3.7-68.5,3.3-64.1,0.3
	c4.4-3,59.1-20.2,62-23.6c2.9-3.4,101.5-289.4,109.2-295.6c7.7-6.2,37.4-0.4,38.9-10.3c1.5-9.9-38.5-149-50-201.8
	c-11.5-52.8-28.9-73.7-64.6-93.2c-35.7-19.5-138-68.2-147.9-61.6c-9.9,6.6-17.9,45-56.7,45.4c-38.9,0.4-77.7-82.5-104.1-84.7
	c-26.4-2.2-199.6,38.5-233.1,94c-33.5,55.5-49.5,367.8-36.3,378.8c13.2,11,249.6,11.5,247.4-35.2c-2.2-46.7-11.5-255.1-61.6-322.2
	c-50-67.1-119.5-45.5-91.6-38.5c27.9,7,100.4-49.9,145.2-51c44.7-1.1,54.3-27.9,53.2-56.8c-1.1-29-5.1-107-4.4-113.6
	s-29,8.1-34.8-23.8c-5.9-31.9,9.9-60.5,30.4-59.7c20.5,0.7,52.1,38.1,57.2,22.4c5.1-15.8,25.7-97.9,13.2-116.9
	c-12.5-19.1-52.8-40.7-66.7-36.3s-22.4,111.1-14.3,110c8.1-1.1,9.9-112.9,38.9-133.4c29-20.5,149.6-19.8,186.2,19.8
	c36.7,39.6,110.5,21.1,112.2,43.6c1.6,22.5-51.7,66-110.5,75.9s-131.4-45.8-122.6-50.2c8.8-4.4,71.5,22,100.4,20.9
	c29-1.1,31.2-19.4,35.6-7.3c4.4,12.1-0.4,225.1-37.8,258.8c-37.4,33.7-144.7-28-134.5-30.8c10.2-2.7,83,19.8,83.6,26.1
	c0.6,6.3,5.5,87.1,18.7,104.7c13.2,17.6,124.6,41.4,123.2,84.7c-1.5,43.3-23.5,249.3-28.6,305.7c-5.1,56.5,9.3,146.8,4.4,145.7
	c-4.9-1.1-42.9-102.3-31.9-108.9c11-6.6,61,11.5,81.4-2.7c20.3-14.3,30.2-72.6,37.9-77s456.9-20.9,460.2-6.6
	s-95.7,318.9-127.6,338.7s-453.8-2.2-440.8-3.3c13-1.1,315.4-20.9,314.3-7.7c-1.1,13.2-133.1,106.7-132,119.9
	c1.1,13.2,138.6,124.3,160.6,121c22-3.3,243.2-128.7,265.1-204.5s-84.7-129.2-123.2-156.2c-38.5-26.9,41-182.5,56.1-196.8
	s247.4-111.1,235.7-234.2c-11.7-123.2-88-171.5-64.5-231.7c23.5-60.1,627.2-1030.8,653-1029.3c25.8,1.5,82.3,22.7,84.5,35.2
	s-77,52.8-36.7,86.5c40.3,33.7,74-43.3,94.6-32.3c20.5,11,86.5,46.9,81.4,66c-5.1,19.1-46.9,49.1-8.8,71.8
	c38.1,22.7,51.3-52.1,66.7-42.5c15.4,9.5,79.9,37.4,75.5,50.6c-4.4,13.2-50.6,89.4,5.9,106.3c56.5,16.9,55.7-60.1,70.4-55
	c14.7,5.1,55.7,32.3,49.1,49.1c-6.6,16.9-54.3,102.6-72.9,114.7s-984.9,621.3-978.3,638.9c6.6,17.6,26.4,61.6,41.1,61.6
	c14.7,0,36.7-22,57.9-1.5s-20.5,74.8-19.8,80.6c0.7,5.9,58.6,60.8,66.7,62.3c8.1,1.5,44-39.6,62.3,6.6
	c18.3,46.2-24.2,72.6-19.1,79.9c5.1,7.3,58.6,69.6,66,69.6s29.3-21.3,47.7,6.6c18.3,27.9-16.1,78.4-13.2,83.6
	c2.9,5.1,8.1,40.3,39.6,30.8c31.5-9.5,959.3-617.7,970.3-651.7c11-34.1-20.2-74.8-41.4-74.8c-21.3,0-35.2,30.8-56.4,7.3
	c-21.3-23.5,26.4-61.6,16.9-81.4c-9.5-19.8-35.9-68.9-46.9-71.8c-11-2.9-51.3,41.1-77.7,2.2c-26.4-38.9,36.7-61.6,23.5-82.1
	c-13.2-20.5-35.2-49.9-53.5-52.1c-18.3-2.2-16.9,41.8-55.7,0.7c-38.9-41.1,16.9-53.5,10.3-78.4c-6.6-24.9-53.2-19.4-41.1-78.8
	c12.1-59.4,246.6-251.8,419.5-127.2c172.9,124.6,238.9,217,472,74.8"/>
</svg>
