<?xml version="1.0" encoding="utf-8"?>
<!-- Generator: Adobe Illustrator 27.6.1, SVG Export Plug-In . SVG Version: 6.00 Build 0)  -->
<svg version="1.1" id="Layer_1" xmlns="http://www.w3.org/2000/svg" xmlns:xlink="http://www.w3.org/1999/xlink" x="0px" y="0px"
	 viewBox="0 0 904 313" style="enable-background:new 0 0 904 313;" xml:space="preserve">
<style type="text/css">
	.st0{fill:#B19CD9;}
	.st1{fill:#0194A8;}
	.st2{fill:#FDCF3B;}
	.st3{fill:#FFFFFF;}
</style>
<path class="st0" d="M293.2,211.2c-7.5,3.9-51.5,3.6-57.9-0.2c-1.5,2.9-3.2,5.8-4.5,8.8c-2.3,5.1-2.8,9.4,2.3,14
	c6.7,6.1,8.1,14.7,7,23.5c-0.5,3.6-2.5,6.1-6.2,6.9c-1.5,0.3-3,0.8-4.4,0.6c-12.4-1.3-24.8-1.3-37.3-0.1c-8.1,0.7-11-3-11.1-11.2
	c-0.2-17.4,14.3-31.4,31.6-29.5c6.1,0.7,9.7-1.5,13.3-5.6c15.9-18.2,9.5-47.9-13.1-56.7c-6.2-2.4-13.7-1.9-20.6-2.2
	c-5.3-0.2-10.6,0.9-15.9,0.7c-5.4-0.2-7.7-2.8-8.3-8.2c-1.7-14.6,7.9-28.2,22.3-31.8c14.6-3.6,30.2,4.5,35.3,18.4
	c0.5,1.4,0.9,2.8,1.6,4.7c5.7-7.3,7.5-15.2,7.6-23.6c0.2-13.2,0-26.3,0.1-39.5c0.1-14.7,11.3-26.1,25.9-26.2c28.2-0.1,56.3,0,84.5,0
	c1,0,2,0.1,3.3,0.2c0,36.7,0,73.3,0,110.3c-1.7-0.7-3.2-1.3-4.7-1.9c-15.7-6.7-34.1-1-43.5,13.5c-9.4,14.5-7.3,34.4,5.1,45.8
	c1.3,1.2,4.2,1.6,6.1,1.2c19.7-4.2,37.5,9.7,37,29.2c-0.2,8.2-3,11-11.2,11.3c-1,0-2-0.1-3-0.1c-10.4,0-20.9-0.4-31.3,0
	c-11,0.4-14.3-2.4-13.9-13.4c0.2-6.8,2.7-12.8,7.4-17.5c2.7-2.7,3.3-5.2,2-8.5C296.8,219.8,295,215.7,293.2,211.2z M288.5,184.9
	c15-15,14.6-38.7-0.7-52.7c-15.2-13.8-38.2-12.1-51.5,4c-12.1,14.7-10.4,38.6,3.5,48.8C256.1,167.3,276.7,171.3,288.5,184.9z"/>
<path class="st1" d="M172,210.1c2.7,2.4,5.5,4.9,8.3,7.4c-11.7-2.8-22.6-7.2-31.2-15.6c-10.3-10.1-8.5-25,3.5-33
	c10.1-6.8,24.5-6.6,34.3,0.4c12.8,9.1,12.8,26.1-0.5,34.6C182.3,206.6,177.1,207.9,172,210.1z"/>
<path class="st1" d="M161.5,103.4c2.4,2.2,5.1,4.6,8.8,7.9c-2.4-0.6-3.6-0.7-4.6-1.2c-7.6-3.7-15.5-6.9-22.7-11.3
	c-8.1-5-12.4-12.7-10.7-22.5c1.6-9.2,8-14.7,16.7-17.6c9.6-3.1,18.8-2.2,27.2,3.5c13.1,8.9,13.2,25.9,0,34.6
	C172,99.7,166.9,101.1,161.5,103.4z"/>
<path class="st0" d="M110,230.9c0-11.3,9-20.4,20.2-20.4c11.2,0,20.1,9.1,20.2,20.4c0.1,11.5-9.1,20.7-20.6,20.5
	C118.6,251.3,110,242.4,110,230.9z"/>
<path class="st0" d="M130.3,148.1c-11.3,0-20.2-8.9-20.3-20.3C110,116.2,119,107,130.4,107c11,0,20.2,9.4,20.1,20.6
	C150.5,139,141.5,148.1,130.3,148.1z"/>
<path class="st2" d="M77.9,184.5c0.1-10,7.9-17.7,17.8-17.5c9.6,0.2,17.3,8.1,17.3,17.8c0,9.9-7.8,17.8-17.8,17.7
	C85.2,202.5,77.8,194.8,77.9,184.5z"/>
<path class="st2" d="M77.9,81.3c0-10.1,7.7-17.9,17.6-17.8c9.5,0.1,17.4,7.9,17.5,17.6c0.1,9.8-7.8,18-17.5,18
	C85.5,99.2,77.9,91.5,77.9,81.3z"/>
<path class="st0" d="M303.6,203.1c0.3-8.8,6.6-14.6,15.7-14.2c8.2,0.3,14.7,6.8,14.6,14.7c-0.1,8.7-6.8,15.1-15.4,14.8
	C309.5,218.1,303.3,211.8,303.6,203.1z"/>
<path class="st0" d="M225.5,204.9c-0.1,8.6-6.4,14.9-14.8,14.9c-8.6,0-15.5-6.5-15.5-14.9c0-8.6,6.5-14.9,15.3-14.8
	C219.1,190.3,225.6,196.8,225.5,204.9z"/>
<path class="st0" d="M182.2,100.5c0.1-8.5,6.4-14.5,15.1-14.5c8.5,0,15.3,6.5,15.2,14.5c-0.1,8.8-6.4,15.1-15.2,15
	C188.4,115.3,182.1,109.1,182.2,100.5z"/>
<path class="st0" d="M51,229.7c0-7.8,5.8-13.7,13.4-13.7c7.6,0,13.5,6,13.6,13.7c0,7.5-6.1,13.8-13.5,13.8
	C56.9,243.5,51.1,237.5,51,229.7z"/>
<path class="st0" d="M51,128.8c0.1-7.6,6.2-13.7,13.7-13.6c7.4,0.1,13.4,6.5,13.3,14c-0.1,7.5-6.3,13.7-13.8,13.6
	C56.8,142.7,51,136.4,51,128.8z"/>
<path class="st2" d="M53.9,183.5c-0.1,6.2-5.1,11.1-11.2,10.9c-5.8-0.2-10.6-5.2-10.6-11.1c0.1-6.2,5.1-11,11.3-10.8
	C49.4,172.7,53.9,177.4,53.9,183.5z"/>
<path class="st2" d="M42.9,71.8c6.3,0,11,4.7,11,11c-0.1,5.9-4.9,10.8-10.8,10.9c-5.9,0.1-11.1-5.2-11-11.3
	C32.1,76.6,36.9,71.9,42.9,71.8z"/>
<path class="st0" d="M264,169.2c-9.1-0.1-15.3-6.1-15.1-14.8c0.1-8.6,6.3-14.5,15-14.5c8.6,0,15.2,6.3,15.2,14.5
	C279.1,163.3,273.1,169.2,264,169.2z"/>
<g>
	<path class="st3" d="M340.5,135.6h-28.9v8.9h-2.3V123h2.3v8.9h28.9V135.6z"/>
	<path class="st3" d="M340.5,118.2h-31.2v-3.6h14v-14.3h-14v-3.6h31.2v3.6h-15v14.3h15V118.2z"/>
	<path class="st3" d="M340.5,87.5h-31.2V70.7h2.3v13.2h12v-12h2.2v12h12.4V69.7h2.3V87.5z"/>
</g>
<g>
	<path class="st1" d="M361,55.2h33.2c12.4,0,22,3.1,28.8,9.3c6.8,6.2,10.3,15.3,10.3,27.5c0,8.7-1.9,15.9-5.7,21.5
		c-3.8,5.7-8.6,9.8-14.5,12.4c-5.9,2.6-12,3.9-18.4,3.9H384v33.9h-23V55.2z M392,119.2c5.6,0,9.7-1.9,12.4-5.8
		c2.7-3.8,4-10.7,4-20.5c0-9.9-1.3-16.9-4-20.9c-2.7-4-6.8-6-12.4-6h-8v53.1H392z"/>
	<path class="st1" d="M433.6,163.8l36.1-108.5h25.6L529,163.8h-24.4l-9.4-30.4h-37.7l-9.9,30.4H433.6z M460.8,122.9h31.2l-14.9-51.1
		h-0.3L460.8,122.9z"/>
	<path class="st1" d="M544.8,163.8V55.2h23.9l45.6,73.6h0.3l-1.2-7.5V55.2h14.4v108.5h-18l-51.6-81.5h-0.3l1.3,9.7v71.8H544.8z"/>
	<path class="st1" d="M653.6,163.8V55.2h65.1v12h-42.1V103h37.1v11.7h-37.1v37.1H721v12H653.6z"/>
	<path class="st1" d="M741.1,163.8V55.2h23v96.5h42.1v12H741.1z"/>
</g>
<g>
	<path class="st3" d="M366.7,264.3c-3.9-1.7-6.8-3.6-8.7-5.5c-1.9-2-2.8-3.1-2.8-3.5l3.4-5.3c0,0.3,0.9,1.3,2.6,3.1
		c1.7,1.8,4.3,3.4,7.6,4.9c3.3,1.5,7.4,2.3,12.3,2.3c5.8,0,10.3-1.7,13.6-5c3.3-3.3,4.9-7.5,4.9-12.4c0-3.4-0.8-6.2-2.5-8.5
		c-1.6-2.3-3.7-4.1-6.1-5.5c-2.4-1.4-5.7-2.9-9.8-4.7c-4.8-1.9-8.6-3.7-11.5-5.5c-2.9-1.7-5.4-4.1-7.4-7.2c-2-3.1-3-7-3-11.7
		c0-7.5,2.4-13.4,7.1-17.9c4.7-4.4,11.1-6.6,19-6.6c3.9,0,7.5,0.6,10.6,1.7c3.2,1.1,5.7,2.4,7.6,3.7c1.9,1.3,2.9,2.1,2.9,2.3l-1.4,6
		c0-0.2-0.9-0.9-2.7-2.2c-1.8-1.3-4.2-2.5-7-3.6c-2.8-1.1-6-1.6-9.5-1.6c-5.1,0-9.1,1.4-12.1,4.2c-2.9,2.8-4.4,6.7-4.4,11.5
		c0,3.4,0.8,6.2,2.4,8.4c1.6,2.2,3.6,4,6,5.4c2.4,1.4,5.6,2.9,9.7,4.5c4.8,2,8.7,3.9,11.6,5.7c2.9,1.8,5.4,4.3,7.5,7.5
		s3.1,7.3,3.1,12.3c0,5-1.2,9.5-3.5,13.4c-2.3,3.9-5.6,6.9-9.9,9.1c-4.3,2.2-9.3,3.3-14.9,3.3C375.5,266.9,370.6,266,366.7,264.3z"
		/>
	<path class="st3" d="M442.6,265.5v-82.5h-25.3v-6.6h61.2v6.6H453v82.5H442.6z"/>
	<path class="st3" d="M474.3,265.5l30-89h12.2l29.5,89h-10.8l-9.3-27.4h-34.9l-9.3,27.4H474.3z M492.8,232.5h31.2l-15.5-48.1
		L492.8,232.5z"/>
	<path class="st3" d="M567.1,265.5v-82.5h-25.3v-6.6H603v6.6h-25.5v82.5H567.1z"/>
	<path class="st3" d="M616.8,265.5v-89h10.4v89H616.8z"/>
	<path class="st3" d="M664.4,261.4c-5.7-3.7-10.1-8.9-13.1-15.8c-3-6.9-4.5-15-4.5-24.5c0-9.4,1.5-17.6,4.5-24.5
		c3-6.9,7.4-12.2,13.1-15.9c5.7-3.7,12.5-5.5,20.5-5.5s14.8,1.8,20.5,5.5s10.2,9,13.2,15.9c3.1,6.9,4.6,15,4.6,24.5
		c0,9.4-1.5,17.6-4.6,24.5c-3.1,6.9-7.5,12.2-13.2,15.8c-5.8,3.7-12.6,5.5-20.5,5.5S670.1,265.1,664.4,261.4z M705.1,250.3
		c4.7-6.7,7.1-16.4,7.1-29.2c0-12.7-2.4-22.4-7.1-29.2c-4.7-6.8-11.4-10.1-20.2-10.1c-8.7,0-15.3,3.4-20,10.1
		c-4.7,6.8-7,16.5-7,29.2c0,12.8,2.3,22.5,6.9,29.2c4.6,6.7,11.3,10,20.1,10C693.7,260.3,700.4,257,705.1,250.3z"/>
	<path class="st3" d="M742.7,265.5v-89h10.8l45.5,73.4l-0.4-3.3v-70.1h7.5v89h-9l-47.4-75.9h-0.1l0.7,4.2v71.7H742.7z"/>
</g>
<g>
	<path class="st3" d="M827.8,264.1V240h-7.4v-1.9h17.9v1.9h-7.4v24.1H827.8z"/>
	<path class="st3" d="M842.3,264.1l0.1-26l0.1,0.1l0-0.1h3.7l9.2,22.3h0l9.2-22.3h3.5l0.1,26h-3l-0.1-22.3h0l-9,22.3h-2.4l-9-22.3
		l-0.1,22.3H842.3z"/>
</g>
</svg>
