<svg width="40" height="40" viewBox="0 0 40 40" fill="none" xmlns="http://www.w3.org/2000/svg">
<path d="M20 3.3335C10.8166 3.3335 3.33331 10.8168 3.33331 20.0002C3.33331 29.1835 10.8166 36.6668 20 36.6668C29.1833 36.6668 36.6666 29.1835 36.6666 20.0002C36.6666 10.8168 29.1833 3.3335 20 3.3335ZM24.65 20.8835L18.7666 26.7668C18.5166 27.0168 18.2 27.1335 17.8833 27.1335C17.5666 27.1335 17.25 27.0168 17 26.7668C16.5166 26.2835 16.5166 25.4835 17 25.0002L22 20.0002L17 15.0002C16.5166 14.5168 16.5166 13.7168 17 13.2335C17.4833 12.7502 18.2833 12.7502 18.7666 13.2335L24.65 19.1168C25.15 19.6002 25.15 20.4002 24.65 20.8835Z" fill="#292D32"/>
</svg>
