<svg width="40" height="40" viewBox="0 0 40 40" fill="none" xmlns="http://www.w3.org/2000/svg">
<path d="M19.9987 3.33203C10.8154 3.33203 3.33203 10.8154 3.33203 19.9987C3.33203 29.182 10.8154 36.6654 19.9987 36.6654C29.182 36.6654 36.6654 29.182 36.6654 19.9987C36.6654 10.8154 29.182 3.33203 19.9987 3.33203ZM22.982 24.9987C23.4654 25.482 23.4654 26.282 22.982 26.7654C22.732 27.0154 22.4154 27.132 22.0987 27.132C21.782 27.132 21.4654 27.0154 21.2154 26.7654L15.332 20.882C14.8487 20.3987 14.8487 19.5987 15.332 19.1154L21.2154 13.232C21.6987 12.7487 22.4987 12.7487 22.982 13.232C23.4654 13.7154 23.4654 14.5154 22.982 14.9987L17.982 19.9987L22.982 24.9987Z" fill="#292D32"/>
</svg>
