<svg width="40" height="40" viewBox="0 0 40 40" fill="none" xmlns="http://www.w3.org/2000/svg">
<g style="mix-blend-mode:difference">
<path d="M26.9835 3.33333H13.0168C6.95016 3.33333 3.3335 6.94999 3.3335 13.0167V26.9667C3.3335 33.05 6.95016 36.6667 13.0168 36.6667H26.9668C33.0335 36.6667 36.6502 33.05 36.6502 26.9833V13.0167C36.6668 6.94999 33.0502 3.33333 26.9835 3.33333ZM23.2002 26.8833H15.0002C14.3168 26.8833 13.7502 26.3167 13.7502 25.6333C13.7502 24.95 14.3168 24.3833 15.0002 24.3833H23.2002C25.3335 24.3833 27.0835 22.65 27.0835 20.5C27.0835 18.35 25.3502 16.6167 23.2002 16.6167H14.7502L15.1835 17.05C15.6668 17.55 15.6668 18.3333 15.1668 18.8333C14.9168 19.0833 14.6002 19.2 14.2835 19.2C13.9668 19.2 13.6502 19.0833 13.4002 18.8333L10.7835 16.2C10.3002 15.7167 10.3002 14.9167 10.7835 14.4333L13.4002 11.8167C13.8835 11.3333 14.6835 11.3333 15.1668 11.8167C15.6502 12.3 15.6502 13.1 15.1668 13.5833L14.6168 14.1333H23.2002C26.7168 14.1333 29.5835 17 29.5835 20.5167C29.5835 24.0333 26.7168 26.8833 23.2002 26.8833Z" fill="#003a84"/>
</g>
</svg>
