<svg width="168" height="544" viewBox="0 0 168 544" fill="none" xmlns="http://www.w3.org/2000/svg">
<g clip-path="url(#clip0_210_1699)">
<circle cx="6" cy="538" r="6" transform="rotate(-90 6 538)" fill="#D9D9D9" fill-opacity="0.35"/>
<circle cx="6" cy="486" r="6" transform="rotate(-90 6 486)" fill="#D9D9D9" fill-opacity="0.35"/>
<circle cx="6" cy="434" r="6" transform="rotate(-90 6 434)" fill="#D9D9D9" fill-opacity="0.35"/>
<circle cx="6" cy="382" r="6" transform="rotate(-90 6 382)" fill="#D9D9D9" fill-opacity="0.35"/>
<circle cx="6" cy="330" r="6" transform="rotate(-90 6 330)" fill="#D9D9D9" fill-opacity="0.35"/>
<circle cx="6" cy="278" r="6" transform="rotate(-90 6 278)" fill="#D9D9D9" fill-opacity="0.35"/>
<circle cx="6" cy="226" r="6" transform="rotate(-90 6 226)" fill="#D9D9D9" fill-opacity="0.35"/>
<circle cx="6" cy="174" r="6" transform="rotate(-90 6 174)" fill="#D9D9D9" fill-opacity="0.35"/>
<circle cx="6" cy="122" r="6" transform="rotate(-90 6 122)" fill="#D9D9D9" fill-opacity="0.35"/>
<circle cx="6" cy="70" r="6" transform="rotate(-90 6 70)" fill="#D9D9D9" fill-opacity="0.35"/>
<circle cx="6" cy="18" r="6" transform="rotate(-90 6 18)" fill="#D9D9D9" fill-opacity="0.35"/>
<circle cx="58" cy="538" r="6" transform="rotate(-90 58 538)" fill="#D9D9D9" fill-opacity="0.35"/>
<circle cx="58" cy="486" r="6" transform="rotate(-90 58 486)" fill="#D9D9D9" fill-opacity="0.35"/>
<circle cx="58" cy="434" r="6" transform="rotate(-90 58 434)" fill="#D9D9D9" fill-opacity="0.35"/>
<circle cx="58" cy="382" r="6" transform="rotate(-90 58 382)" fill="#D9D9D9" fill-opacity="0.35"/>
<circle cx="58" cy="330" r="6" transform="rotate(-90 58 330)" fill="#D9D9D9" fill-opacity="0.35"/>
<circle cx="58" cy="278" r="6" transform="rotate(-90 58 278)" fill="#D9D9D9" fill-opacity="0.35"/>
<circle cx="58" cy="226" r="6" transform="rotate(-90 58 226)" fill="#D9D9D9" fill-opacity="0.35"/>
<circle cx="58" cy="174" r="6" transform="rotate(-90 58 174)" fill="#D9D9D9" fill-opacity="0.35"/>
<circle cx="58" cy="122" r="6" transform="rotate(-90 58 122)" fill="#D9D9D9" fill-opacity="0.35"/>
<circle cx="58" cy="70" r="6" transform="rotate(-90 58 70)" fill="#D9D9D9" fill-opacity="0.35"/>
<circle cx="58" cy="18" r="6" transform="rotate(-90 58 18)" fill="#D9D9D9" fill-opacity="0.35"/>
<circle cx="110" cy="538" r="6" transform="rotate(-90 110 538)" fill="#D9D9D9" fill-opacity="0.35"/>
<circle cx="110" cy="486" r="6" transform="rotate(-90 110 486)" fill="#D9D9D9" fill-opacity="0.35"/>
<circle cx="110" cy="434" r="6" transform="rotate(-90 110 434)" fill="#D9D9D9" fill-opacity="0.35"/>
<circle cx="110" cy="382" r="6" transform="rotate(-90 110 382)" fill="#D9D9D9" fill-opacity="0.35"/>
<circle cx="110" cy="330" r="6" transform="rotate(-90 110 330)" fill="#D9D9D9" fill-opacity="0.35"/>
<circle cx="110" cy="278" r="6" transform="rotate(-90 110 278)" fill="#D9D9D9" fill-opacity="0.35"/>
<circle cx="110" cy="226" r="6" transform="rotate(-90 110 226)" fill="#D9D9D9" fill-opacity="0.35"/>
<circle cx="110" cy="174" r="6" transform="rotate(-90 110 174)" fill="#D9D9D9" fill-opacity="0.35"/>
<circle cx="110" cy="122" r="6" transform="rotate(-90 110 122)" fill="#D9D9D9" fill-opacity="0.35"/>
<circle cx="110" cy="70" r="6" transform="rotate(-90 110 70)" fill="#D9D9D9" fill-opacity="0.35"/>
<circle cx="110" cy="18" r="6" transform="rotate(-90 110 18)" fill="#D9D9D9" fill-opacity="0.35"/>
<circle cx="162" cy="538" r="6" transform="rotate(-90 162 538)" fill="#D9D9D9" fill-opacity="0.35"/>
<circle cx="162" cy="486" r="6" transform="rotate(-90 162 486)" fill="#D9D9D9" fill-opacity="0.35"/>
<circle cx="162" cy="434" r="6" transform="rotate(-90 162 434)" fill="#D9D9D9" fill-opacity="0.35"/>
</g>
<defs>
<clipPath id="clip0_210_1699">
<rect width="544" height="168" fill="white" transform="matrix(0 -1 1 0 0 544)"/>
</clipPath>
</defs>
</svg>
